<?xml version="1.0" encoding="UTF-8" standalone="no"?>
<svg width="770px" height="775px" viewBox="0 0 770 775" version="1.1" xmlns="http://www.w3.org/2000/svg" xmlns:xlink="http://www.w3.org/1999/xlink" xmlns:sketch="http://www.bohemiancoding.com/sketch/ns">
    <!-- Generator: Sketch 3.2.1 (9971) - http://www.bohemiancoding.com/sketch -->
    <title>problem-browser</title>
    <desc>Created with Sketch.</desc>
    <defs></defs>
    <g id="Page-1" stroke="none" stroke-width="1" fill="none" fill-rule="evenodd" sketch:type="MSPage">
        <g id="problem-browser" sketch:type="MSArtboardGroup" transform="translate(-102.000000, -101.000000)" stroke-width="2">
            <g sketch:type="MSLayerGroup" transform="translate(103.000000, 102.000000)">
                <path d="M722,21.6187785 L769,21.6187785 L759.839681,1.81528691 C759.379801,0.821082931 758.10849,0 757.008756,0 L732.991244,0 C731.899898,0 730.624062,0.812731634 730.160319,1.81528691 L722,19.4569007 L722,21.6187785 Z" id="Tab" stroke="#9F9F9F" fill="#FFFEFC" sketch:type="MSShapeGroup" transform="translate(745.500000, 10.809389) scale(-1, 1) translate(-745.500000, -10.809389) "></path>
                <path d="M657.160319,1.81528691 C657.624062,0.812731634 658.899898,0 659.991244,0 L684.008756,0 C685.10849,0 686.379801,0.821082931 686.839681,1.81528691 L696,21.6187785 L648,21.6187785 L657.160319,1.81528691 Z" id="Tab" stroke="#9F9F9F" fill="#FFFEFC" sketch:type="MSShapeGroup" transform="translate(672.000000, 10.809389) scale(-1, 1) translate(-672.000000, -10.809389) "></path>
                <path d="M621.190129,10.8226497 C621.637408,9.81602808 622.899898,9 623.991244,9 L648.008756,9 C649.10849,9 650.361813,9.81427561 650.809871,10.8226497 L660,31.505423 L612,31.505423 L621.190129,10.8226497 Z" id="Tab" stroke="#A1A09F" fill="#FEFAF3" sketch:type="MSShapeGroup" transform="translate(636.000000, 20.252711) scale(-1, 1) translate(-636.000000, -20.252711) "></path>
                <path d="M585.190129,10.8226497 C585.637408,9.81602808 586.899898,9 587.991244,9 L612.008756,9 C613.10849,9 614.361813,9.81427561 614.809871,10.8226497 L624,31.505423 L576,31.505423 L585.190129,10.8226497 Z" id="Tab" stroke="#A1A09F" fill="#FEFAF3" sketch:type="MSShapeGroup" transform="translate(600.000000, 20.252711) scale(-1, 1) translate(-600.000000, -20.252711) "></path>
                <path d="M549.190129,10.8226497 C549.637408,9.81602808 550.899898,9 551.991244,9 L576.008756,9 C577.10849,9 578.361813,9.81427561 578.809871,10.8226497 L588,31.505423 L540,31.505423 L549.190129,10.8226497 Z" id="Tab" stroke="#A1A09F" fill="#FEFAF3" sketch:type="MSShapeGroup" transform="translate(564.000000, 20.252711) scale(-1, 1) translate(-564.000000, -20.252711) "></path>
                <path d="M513.190129,10.8226497 C513.637408,9.81602808 514.899898,9 515.991244,9 L540.008756,9 C541.10849,9 542.361813,9.81427561 542.809871,10.8226497 L552,31.505423 L504,31.505423 L513.190129,10.8226497 Z" id="Tab" stroke="#A1A09F" fill="#FEFAF3" sketch:type="MSShapeGroup" transform="translate(528.000000, 20.252711) scale(-1, 1) translate(-528.000000, -20.252711) "></path>
                <path d="M477.190129,10.8226497 C477.637408,9.81602808 478.899898,9 479.991244,9 L504.008756,9 C505.10849,9 506.361813,9.81427561 506.809871,10.8226497 L516,31.505423 L468,31.505423 L477.190129,10.8226497 Z" id="Tab" stroke="#A1A09F" fill="#FEFAF3" sketch:type="MSShapeGroup" transform="translate(492.000000, 20.252711) scale(-1, 1) translate(-492.000000, -20.252711) "></path>
                <path d="M441.190129,10.8226497 C441.637408,9.81602808 442.899898,9 443.991244,9 L468.008756,9 C469.10849,9 470.361813,9.81427561 470.809871,10.8226497 L480,31.505423 L432,31.505423 L441.190129,10.8226497 Z" id="Tab" stroke="#A1A09F" fill="#FEFAF3" sketch:type="MSShapeGroup" transform="translate(456.000000, 20.252711) scale(-1, 1) translate(-456.000000, -20.252711) "></path>
                <path d="M405.190129,10.8226497 C405.637408,9.81602808 406.899898,9 407.991244,9 L432.008756,9 C433.10849,9 434.361813,9.81427561 434.809871,10.8226497 L444,31.505423 L396,31.505423 L405.190129,10.8226497 Z" id="Tab" stroke="#A1A09F" fill="#FEFAF3" sketch:type="MSShapeGroup" transform="translate(420.000000, 20.252711) scale(-1, 1) translate(-420.000000, -20.252711) "></path>
                <path d="M369.190129,10.8226497 C369.637408,9.81602808 370.899898,9 371.991244,9 L396.008756,9 C397.10849,9 398.361813,9.81427561 398.809871,10.8226497 L408,31.505423 L360,31.505423 L369.190129,10.8226497 Z" id="Tab" stroke="#A1A09F" fill="#FEFAF3" sketch:type="MSShapeGroup" transform="translate(384.000000, 20.252711) scale(-1, 1) translate(-384.000000, -20.252711) "></path>
                <path d="M333.190129,10.8226497 C333.637408,9.81602808 334.899898,9 335.991244,9 L360.008756,9 C361.10849,9 362.361813,9.81427561 362.809871,10.8226497 L372,31.505423 L324,31.505423 L333.190129,10.8226497 Z" id="Tab" stroke="#A1A09F" fill="#FEFAF3" sketch:type="MSShapeGroup" transform="translate(348.000000, 20.252711) scale(-1, 1) translate(-348.000000, -20.252711) "></path>
                <path d="M297.190129,10.8226497 C297.637408,9.81602808 298.899898,9 299.991244,9 L324.008756,9 C325.10849,9 326.361813,9.81427561 326.809871,10.8226497 L336,31.505423 L288,31.505423 L297.190129,10.8226497 Z" id="Tab" stroke="#A1A09F" fill="#FEFAF3" sketch:type="MSShapeGroup" transform="translate(312.000000, 20.252711) scale(-1, 1) translate(-312.000000, -20.252711) "></path>
                <path d="M261.190129,10.8226497 C261.637408,9.81602808 262.899898,9 263.991244,9 L288.008756,9 C289.10849,9 290.361813,9.81427561 290.809871,10.8226497 L300,31.505423 L252,31.505423 L261.190129,10.8226497 Z" id="Tab" stroke="#A1A09F" fill="#FEFAF3" sketch:type="MSShapeGroup" transform="translate(276.000000, 20.252711) scale(-1, 1) translate(-276.000000, -20.252711) "></path>
                <path d="M225.190129,10.8226497 C225.637408,9.81602808 226.899898,9 227.991244,9 L252.008756,9 C253.10849,9 254.361813,9.81427561 254.809871,10.8226497 L264,31.505423 L216,31.505423 L225.190129,10.8226497 Z" id="Tab" stroke="#A1A09F" fill="#FEFAF3" sketch:type="MSShapeGroup" transform="translate(240.000000, 20.252711) scale(-1, 1) translate(-240.000000, -20.252711) "></path>
                <path d="M189.190129,10.8226497 C189.637408,9.81602808 190.899898,9 191.991244,9 L216.008756,9 C217.10849,9 218.361813,9.81427561 218.809871,10.8226497 L228,31.505423 L180,31.505423 L189.190129,10.8226497 Z" id="Tab" stroke="#A1A09F" fill="#FEFAF3" sketch:type="MSShapeGroup" transform="translate(204.000000, 20.252711) scale(-1, 1) translate(-204.000000, -20.252711) "></path>
                <path d="M153.190129,10.8226497 C153.637408,9.81602808 154.899898,9 155.991244,9 L180.008756,9 C181.10849,9 182.361813,9.81427561 182.809871,10.8226497 L192,31.505423 L144,31.505423 L153.190129,10.8226497 Z" id="Tab" stroke="#A1A09F" fill="#FEFAF3" sketch:type="MSShapeGroup" transform="translate(168.000000, 20.252711) scale(-1, 1) translate(-168.000000, -20.252711) "></path>
                <path d="M117.190129,10.8226497 C117.637408,9.81602808 118.899898,9 119.991244,9 L144.008756,9 C145.10849,9 146.361813,9.81427561 146.809871,10.8226497 L156,31.505423 L108,31.505423 L117.190129,10.8226497 Z" id="Tab" stroke="#A1A09F" fill="#FEFAF3" sketch:type="MSShapeGroup" transform="translate(132.000000, 20.252711) scale(-1, 1) translate(-132.000000, -20.252711) "></path>
                <path d="M81.1901287,10.8226497 C81.6374082,9.81602808 82.8998975,9 83.9912443,9 L108.008756,9 C109.10849,9 110.361813,9.81427561 110.809871,10.8226497 L120,31.505423 L72,31.505423 L81.1901287,10.8226497 Z" id="Tab" stroke="#A1A09F" fill="#FEFAF3" sketch:type="MSShapeGroup" transform="translate(96.000000, 20.252711) scale(-1, 1) translate(-96.000000, -20.252711) "></path>
                <path d="M45.1901287,10.8226497 C45.6374082,9.81602808 46.8998975,9 47.9912443,9 L72.0087557,9 C73.1084896,9 74.3618131,9.81427561 74.8098713,10.8226497 L84,31.505423 L36,31.505423 L45.1901287,10.8226497 Z" id="Tab" stroke="#A1A09F" fill="#FEFAF3" sketch:type="MSShapeGroup" transform="translate(60.000000, 20.252711) scale(-1, 1) translate(-60.000000, -20.252711) "></path>
                <path d="M9.19012865,10.8226497 C9.63740825,9.81602808 10.8998975,9 11.9912443,9 L36.0087557,9 C37.1084896,9 38.3618131,9.81427561 38.8098713,10.8226497 L48,31.505423 L4.54747351e-13,31.505423 L9.19012865,10.8226497 Z" id="Tab" stroke="#A1A09F" fill="#FEFAF3" sketch:type="MSShapeGroup" transform="translate(24.000000, 20.252711) scale(-1, 1) translate(-24.000000, -20.252711) "></path>
                <path d="M43.8537662,1.79246765 C44.3487424,0.802515101 45.6497127,0 46.7432874,0 L71.7567126,0 C72.8575748,0 74.1543972,0.808794498 74.6462338,1.79246765 L83.75,20 L768,20 L768,58 L0,58 L0,20 L34.75,20 L43.8537662,1.79246765 Z" id="Tab" stroke="#A1A09F" fill="#FFFEFC" sketch:type="MSShapeGroup" transform="translate(384.000000, 29.000000) scale(-1, 1) translate(-384.000000, -29.000000) "></path>
                <rect id="Rectangle-140" stroke="#A1A09F" sketch:type="MSShapeGroup" x="0" y="58" width="768" height="715"></rect>
            </g>
        </g>
    </g>
</svg>